<svg fill="none" viewBox="0 0 1000 1000">
  <path fill="#6FBAFF" fill-rule="evenodd" d="M698.7 401.9a70 70 0 1 0 99-99 70 70 0 0 0-99 99Zm199.5-49.5c0 12 4.4 24 14 31.4L939 405a10 10 0 0 1 2.4 12.8l-40 69.2a10 10 0 0 1-12.2 4.4l-31.6-12.8a38.7 38.7 0 0 0-34.3 3.5 40.5 40.5 0 0 0-20.4 28.3l-4.7 33.6c-.8 4.8-5 8.4-10 8.4h-80c-5 0-9.2-3.6-10-8.4l-4.6-33.4A41 41 0 0 0 673 482a38.2 38.2 0 0 0-34-3.6l-31.7 12.9A10 10 0 0 1 595 487l-40-69.2a9.9 9.9 0 0 1 2.4-12.8l26.9-21.2a39.3 39.3 0 0 0 13.9-31.4 40 40 0 0 0-14.5-32.3l-26.3-20.3c-3.8-3-5-8.4-2.4-12.8l40-69.2a9.8 9.8 0 0 1 12.2-4.4l31.9 12.8a38 38 0 0 0 33.6-3.5 41.2 41.2 0 0 0 20.8-28.6l4.6-33.3c.8-4.8 5-8.4 10-8.4h80a10.1 10.1 0 0 1 10 8.4l4.7 33.3a41.2 41.2 0 0 0 20.7 28.6 38 38 0 0 0 33.7 3.5l32-12.8c4.3-1.8 9.7 0 12.1 4.4l40 69.2a10 10 0 0 1-2.4 12.8L912.7 320a40 40 0 0 0-14.5 32.3Z" clip-rule="evenodd"/>
  <path fill="#6FBAFF" d="M931.5 532.6a195.2 195.2 0 0 1 22.5 91.3c0 105.9-83.4 191.7-186.3 191.7H232.3c-103 0-186.3-85.8-186.3-191.7 0-105.8 83.4-191.6 186.3-191.6h4c13.3-132.7 103.8-241 263.7-241a322 322 0 0 1 46.5 3.3L508.7 260a63.5 63.5 0 0 0 15.5 82l13.4 10.2-13.3 10.6a64 64 0 0 0-15.6 82l39.7 68.7a63.8 63.8 0 0 0 77 28.3l1-.3 16.3-6.6h.1l2.4 17.2.1.7a63.8 63.8 0 0 0 63 53.2H788a63.8 63.8 0 0 0 63-53.2v-.7l2.5-17.2h.1l16.3 6.6.9.3a63.8 63.8 0 0 0 60.6-9.2Z"/>
</svg>
